<svg version="1.0" xmlns="http://www.w3.org/2000/svg" preserveAspectRatio="xMidYMid meet" viewBox="97.03 160.13 550.53 139.83">  <g transform="translate(0.000000,540.000000) scale(0.100000,-0.100000)" fill="#000000" stroke="none"> 
<path d="M3448 3776 c-45 -32 -88 -102 -88 -144 0 -71 81 -118 222 -129 96 -7 131 9 126 60 -4 40 -34 56 -128 66 -79 8 -91 15 -68 38 15 15 23 14 102 -6 85 -21 176 -58 207 -83 14 -11 49 -79 49 -95 0 -2 -21 -14 -47 -25 -133 -60 -424 10 -516 124 -47 59 -94 52 -174 -25 -33 -32 -48 -58 -67 -116 -47 -143 -62 -277 -46 -402 23 -187 80 -337 169 -449 61 -76 109 -115 191 -154 53 -25 81 -31 148 -34 77 -4 88 -2 147 27 70 35 147 111 192 191 26 45 29 48 58 42 120 -27 181 14 230 154 49 142 70 381 44 519 -22 121 -76 180 -156 172 -37 -4 -43 -2 -43 15 0 51 -68 134 -150 185 -58 36 -217 84 -294 90 -64 4 -74 2 -108 -21z m-76 -386 c134 -72 337 -99 455 -62 l61 19 5 -26 c5 -26 -7 -215 -18 -279 l-6 -34 -28 45 c-35 54 -70 80 -139 102 -54 18 -179 18 -389 -1 -92 -8 -139 1 -159 30 -13 21 -13 34 1 121 15 93 34 154 56 182 9 10 20 5 55 -26 24 -21 71 -53 106 -71z m697 -40 c38 -110 13 -398 -46 -532 -13 -30 -21 -38 -43 -38 -15 0 -29 2 -32 5 -3 3 3 34 14 68 24 79 45 212 53 352 10 158 30 213 54 145z"/> 
<path d="M2150 3590 c-19 -11 -54 -29 -78 -40 -49 -23 -68 -54 -53 -91 6 -18 19 -28 41 -33 29 -5 32 -9 27 -33 -9 -42 -27 -207 -33 -306 l-6 -87 -36 -16 c-48 -20 -72 -43 -72 -69 0 -28 38 -63 78 -71 32 -6 32 -7 32 -68 0 -33 5 -101 10 -151 9 -78 14 -94 38 -118 35 -35 100 -41 131 -13 26 24 26 39 0 93 -17 34 -22 65 -23 136 l-1 92 46 -1 c88 -3 346 -161 457 -279 63 -68 80 -74 120 -43 18 15 14 67 -7 115 -28 60 -81 109 -206 187 -61 38 -114 72 -118 76 -4 4 23 25 60 48 99 59 148 105 180 170 24 49 28 69 28 142 0 75 -4 91 -30 139 -63 114 -203 187 -384 198 -74 5 -97 10 -110 25 -20 23 -48 23 -91 -2z m255 -161 c103 -19 180 -69 204 -132 48 -127 -59 -277 -235 -331 -58 -17 -64 -17 -118 -2 l-56 17 1 67 c0 37 6 103 14 147 8 44 20 115 26 157 9 55 17 78 28 81 30 8 77 7 136 -4z"/> 
<path d="M5273 3580 c-54 -32 -68 -76 -138 -420 -58 -280 -111 -444 -144 -438 -63 12 -175 393 -212 721 -11 105 -12 107 -44 127 -95 59 -253 -15 -205 -95 13 -20 14 -54 7 -207 -14 -324 -14 -638 2 -690 17 -61 50 -92 96 -90 75 3 92 38 59 118 -22 53 -36 300 -28 479 l7 140 19 -65 c144 -501 211 -629 321 -618 69 7 127 130 208 442 28 105 51 191 52 192 1 1 1 -103 -1 -232 -3 -189 0 -249 13 -306 27 -122 74 -188 131 -188 59 0 86 57 44 95 -11 10 -24 34 -30 54 -22 80 -8 521 25 754 10 78 19 107 41 139 l28 40 -27 24 c-54 46 -168 59 -224 24z"/> 
<path d="M1414 3561 c-105 -64 -246 -349 -364 -736 -28 -93 -58 -187 -66 -208 -22 -60 -18 -92 17 -121 35 -30 89 -35 109 -11 7 9 16 52 20 96 4 43 10 82 13 85 14 14 95 24 242 29 88 3 172 8 188 10 27 4 27 4 27 -55 0 -61 13 -109 33 -122 7 -4 31 -8 55 -8 32 0 49 6 67 25 29 28 30 38 10 95 -19 55 -20 54 14 66 53 21 47 109 -9 120 -34 7 -28 -12 -60 224 -41 311 -110 480 -213 519 -38 15 -47 14 -83 -8z m70 -184 c26 -38 65 -228 101 -489 l6 -48 -88 0 c-81 -1 -115 -4 -270 -25 l-53 -8 19 54 c61 179 181 445 228 507 29 38 38 40 57 9z"/> 
<path d="M6074 3561 c-105 -64 -246 -349 -364 -736 -28 -93 -58 -187 -66 -208 -8 -20 -14 -50 -14 -66 0 -39 49 -81 95 -81 46 0 65 29 65 100 0 70 8 97 28 105 23 9 215 24 340 27 l102 3 0 -57 c0 -60 13 -107 33 -120 7 -4 31 -8 55 -8 32 0 49 6 67 25 29 28 30 38 10 95 -19 55 -20 54 14 66 53 21 47 109 -9 120 -34 7 -28 -12 -60 224 -41 311 -110 480 -213 519 -38 15 -47 14 -83 -8z m70 -184 c26 -38 65 -228 101 -489 l6 -48 -93 0 c-85 -1 -132 -5 -270 -26 l-48 -7 19 54 c61 179 181 445 228 507 29 38 38 40 57 9z"/> </g> </svg>